
<svg width="215" height="32" fill="none" xmlns="http://www.w3.org/2000/svg"><path d="M186.41 27.974v-1.595a.964.964 0 00-.265-.73.92.92 0 00-.709-.28.938.938 0 00-.495.104.964.964 0 00-.374.348.926.926 0 00-.349-.341.889.889 0 00-.469-.11.801.801 0 00-.412.09.823.823 0 00-.313.287v-.314h-.539v2.54h.544v-1.397a.613.613 0 01.148-.484.583.583 0 01.458-.191c.357 0 .538.239.538.67v1.413h.544v-1.408a.61.61 0 01.149-.483.583.583 0 01.456-.192c.368 0 .544.239.544.67v1.413l.544-.01zm8.042-2.54h-.885v-.772h-.544v.771h-.491v.505h.502v1.17c0 .59.222.94.859.94a1.24 1.24 0 00.673-.196l-.155-.474a.976.976 0 01-.476.144c-.259 0-.358-.17-.358-.425v-1.159h.88l-.005-.505zm4.592-.065a.717.717 0 00-.652.372v-.308h-.533v2.54h.538V26.55c0-.42.176-.654.518-.654a.856.856 0 01.336.064l.166-.531a1.123 1.123 0 00-.383-.07l.01.011zm-6.942.266a1.814 1.814 0 00-1.01-.266c-.626 0-1.035.309-1.035.814 0 .414.3.67.854.749l.259.037c.295.043.435.122.435.266 0 .197-.197.308-.564.308a1.297 1.297 0 01-.824-.265l-.258.43c.313.225.689.34 1.071.33.715 0 1.129-.346 1.129-.83 0-.483-.326-.68-.865-.76l-.259-.037c-.233-.032-.419-.08-.419-.25 0-.17.176-.297.471-.297.273.003.54.078.777.218l.238-.447zm14.421-.266a.714.714 0 00-.376.094.74.74 0 00-.277.278v-.308h-.533v2.54h.539V26.55c0-.42.176-.654.517-.654.115-.001.23.02.337.064l.165-.531a1.123 1.123 0 00-.383-.07l.011.011zm-6.938 1.33a1.298 1.298 0 00.374.964c.125.124.273.221.436.284.163.063.337.09.511.08.323.017.64-.091.89-.303l-.259-.447a1.069 1.069 0 01-.647.229.786.786 0 01-.52-.26.83.83 0 010-1.106.786.786 0 01.52-.26c.234.002.461.082.647.228l.259-.446a1.273 1.273 0 00-.89-.303 1.222 1.222 0 00-.947.365 1.298 1.298 0 00-.374.963v.011zm5.043 0v-1.266h-.539v.308a.94.94 0 00-.776-.372c-.343 0-.673.14-.915.39a1.345 1.345 0 00-.379.94c0 .351.136.69.379.939.242.249.572.389.915.389a.918.918 0 00.776-.372v.308h.539v-1.265zm-2.004 0a.786.786 0 01.147-.414.75.75 0 01.344-.263.73.73 0 01.799.193.787.787 0 01.145.83.758.758 0 01-.274.338.735.735 0 01-.959-.11.775.775 0 01-.202-.575zm-6.497-1.33c-.343.005-.671.15-.91.403a1.348 1.348 0 00-.366.945c.005.352.146.688.392.934.246.246.577.38.92.376.373.02.739-.104 1.028-.346l-.259-.409a1.159 1.159 0 01-.72.266.675.675 0 01-.493-.157.71.71 0 01-.247-.465h1.838v-.213c0-.797-.481-1.328-1.175-1.328l-.008-.006zm0 .495a.599.599 0 01.438.175.642.642 0 01.188.441h-1.294c.01-.17.084-.33.207-.446a.625.625 0 01.451-.17h.01zm13.489.84v-2.291h-.518v1.328a.94.94 0 00-.776-.372c-.344 0-.673.14-.915.39a1.347 1.347 0 000 1.879c.242.249.571.389.915.389a.918.918 0 00.776-.372v.308h.518v-1.26zm.898.9a.26.26 0 01.099.019.26.26 0 01.08.053.258.258 0 01.074.178.255.255 0 01-.074.178.263.263 0 01-.179.075.252.252 0 01-.138-.043.27.27 0 01-.095-.111.254.254 0 01-.019-.099c0-.034.006-.067.019-.098a.26.26 0 01.135-.133.253.253 0 01.106-.019h-.008zm0 .45a.187.187 0 00.135-.058.201.201 0 000-.267.185.185 0 00-.21-.042.194.194 0 00-.062.042.2.2 0 000 .266.195.195 0 00.145.058h-.008zm.016-.317a.1.1 0 01.067.022.064.064 0 01.018.024c.004.01.006.02.005.031a.063.063 0 01-.018.048.089.089 0 01-.054.024l.075.088h-.06l-.069-.088h-.024v.088h-.049v-.234l.109-.003zm-.057.045v.064h.057c.01.003.021.003.031 0a.025.025 0 000-.024.025.025 0 000-.024.053.053 0 00-.031 0l-.057-.016zm-2.848-1.079a.786.786 0 01.147-.413.75.75 0 01.344-.263.73.73 0 01.799.193.773.773 0 01.145.83.758.758 0 01-.274.338.733.733 0 01-.708.069.747.747 0 01-.41-.444.792.792 0 01-.043-.31zm-18.179 0v-1.27h-.538v.308a.95.95 0 00-.345-.282.919.919 0 00-.432-.09c-.343 0-.672.14-.915.39a1.345 1.345 0 00-.379.94c0 .351.136.69.379.939s.572.389.915.389a.918.918 0 00.432-.09.952.952 0 00.345-.282v.308h.538v-1.26zm-2.004 0a.786.786 0 01.147-.413.75.75 0 01.344-.263.73.73 0 01.799.193.773.773 0 01.145.83.758.758 0 01-.274.338.733.733 0 01-.41.129.727.727 0 01-.552-.236.765.765 0 01-.204-.578h.005z" fill="#231F20"/><path d="M200.077 6.073h-8.154v15.044h8.154V6.073z" fill="#FF5F00"/><path d="M192.441 13.597a9.764 9.764 0 01.934-4.183A9.518 9.518 0 01196 6.074a9.19 9.19 0 00-4.764-1.99 9.106 9.106 0 00-5.067.907 9.41 9.41 0 00-3.827 3.53 9.762 9.762 0 00-1.419 5.075c0 1.795.492 3.554 1.419 5.076a9.41 9.41 0 003.827 3.529 9.105 9.105 0 005.067.908 9.19 9.19 0 004.764-1.99 9.513 9.513 0 01-2.624-3.34 9.744 9.744 0 01-.935-4.182z" fill="#EB001B"/><path d="M211.078 13.596a9.754 9.754 0 01-1.42 5.076 9.4 9.4 0 01-3.826 3.53 9.11 9.11 0 01-5.068.907A9.19 9.19 0 01196 21.117a9.51 9.51 0 002.623-3.34 9.777 9.777 0 00.938-4.182 9.776 9.776 0 00-.938-4.182A9.51 9.51 0 00196 6.073a9.19 9.19 0 014.764-1.992 9.109 9.109 0 015.068.907 9.4 9.4 0 013.826 3.53 9.754 9.754 0 011.42 5.076v.002zm-.891 5.927v-.309h.122v-.063h-.308v.063h.132v.309h.054zm.598 0v-.372h-.093l-.109.265-.108-.265h-.083v.372h.067v-.28l.101.242h.07l.101-.241v.281l.054-.002z" fill="#F79E1B"/><path fill-rule="evenodd" clip-rule="evenodd" d="M21.018 6v.01c-.01 0-3.046-.01-3.856 3.013A3418.997 3418.997 0 0114.27 19.66h-.579s-2.14-7.824-2.893-10.646C9.989 5.99 6.943 6 6.943 6H0v23h6.942V15.34h.578L11.57 29h4.82l4.05-13.65h.578V29h6.942V6h-6.942zm25.358 0s-2.035.19-2.99 2.41L38.47 19.66h-.579V6H30.95v23h6.556s2.131-.2 3.086-2.41l4.82-11.25h.579V29h6.942V6h-6.556zm9.642 10.445V29h6.941v-7.332h7.52c3.279 0 6.056-2.18 7.087-5.223H56.018z" fill="#4DB45E"/><path fill-rule="evenodd" clip-rule="evenodd" d="M70.48 6H55.042c.771 4.379 3.924 7.894 8.002 9.04.926.26 1.9.401 2.903.401h11.897A8.026 8.026 0 0078 13.834C78 9.505 74.635 6 70.48 6z" fill="url(#paint0_linear)"/><path fill-rule="evenodd" clip-rule="evenodd" d="M128.714 12.924c-.04 3.149 2.835 4.906 5.001 5.951 2.225 1.072 2.973 1.76 2.964 2.718-.017 1.467-1.775 2.114-3.42 2.14-2.871.044-4.541-.768-5.868-1.381l-1.034 4.79c1.332.608 3.797 1.137 6.354 1.16 6 0 9.927-2.932 9.948-7.478.023-5.77-8.063-6.09-8.008-8.669.02-.782.773-1.616 2.425-1.829.818-.107 3.075-.189 5.634.978l1.004-4.635c-1.376-.496-3.145-.971-5.347-.971-5.648 0-9.621 2.972-9.653 7.226zm24.651-6.827a2.605 2.605 0 00-2.431 1.604l-8.572 20.26h5.996l1.193-3.264h7.328l.693 3.265h5.285l-4.612-21.865h-4.88zm.839 5.907l1.73 8.21h-4.739l3.009-8.21zm-32.76-5.907l-4.727 21.865h5.714l4.725-21.865h-5.712zm-8.454 0l-5.947 14.882-2.406-12.654c-.283-1.412-1.397-2.228-2.635-2.228h-9.724l-.135.635c1.996.429 4.263 1.12 5.637 1.86.841.452 1.081.847 1.357 1.921l4.557 17.449h6.039l9.258-21.865h-6.001z" fill="#1A1F71"/><defs><linearGradient id="paint0_linear" x1="55.045" y1="10.72" x2="77.999" y2="10.72" gradientUnits="userSpaceOnUse"><stop offset=".3" stop-color="#00B4E6"/><stop offset="1" stop-color="#088CCB"/></linearGradient></defs></svg>