<svg width="26" height="26" viewBox="0 0 26 26" fill="none" xmlns="http://www.w3.org/2000/svg">
<path d="M12.9999 0.998291C6.37145 0.998291 0.998291 6.37145 0.998291 12.9999C0.998291 19.6283 6.37145 25.0015 12.9999 25.0015C19.6283 25.0015 25.0015 19.6283 25.0015 12.9999C25.0015 6.37145 19.6283 0.998291 12.9999 0.998291ZM19.45 17.5543C18.9378 17.8746 16.8565 17.9701 16.3526 17.604C16.0762 17.4033 15.8235 17.1521 15.5835 16.9129C15.4156 16.7457 15.225 16.6646 15.0807 16.4831C14.9629 16.3347 14.882 16.1594 14.758 16.0128C14.5487 15.7668 14.2266 15.5575 13.9718 15.8581C13.588 16.3102 14.0321 17.1981 13.5204 17.5359C13.3488 17.6492 13.1757 17.682 12.9612 17.6659L12.4861 17.6874C12.2072 17.6929 11.7652 17.6955 11.4477 17.6383C11.0936 17.5743 10.8011 17.3809 10.4808 17.2389C9.87287 16.9693 9.29385 16.6019 8.85315 16.0931C7.65377 14.7073 6.04281 12.8015 5.41699 11.0593C5.28829 10.7012 4.94821 9.99221 5.27061 9.68515C5.70897 9.36665 7.86047 9.27695 8.19613 9.76939C8.33237 9.96959 8.41843 10.2624 8.51489 10.4893C8.63501 10.7722 8.70001 11.0387 8.88773 11.2891C9.05387 11.5111 9.17633 11.7345 9.30477 11.9778C9.44907 12.2511 9.58531 12.5132 9.76081 12.7646C9.87989 12.9357 10.1948 13.276 10.3937 13.3012C10.8793 13.3634 10.8492 12.1832 10.813 11.8952C10.7785 11.6175 10.7696 11.3229 10.7787 11.0413C10.7865 10.8011 10.8081 10.4626 10.6659 10.2665C10.434 9.94671 9.91733 10.1859 9.87703 9.75613C9.96231 9.63419 9.94437 9.52603 10.514 9.33831C10.9628 9.19089 11.2527 9.19557 11.5486 9.21923C12.1518 9.26759 12.7914 9.10431 13.3738 9.29983C13.9302 9.48729 13.8441 10.278 13.8254 10.7517C13.8002 11.3983 13.8272 12.0296 13.8254 12.6861C13.8246 12.9848 13.8127 13.2758 14.1772 13.2513C14.5188 13.2287 14.5537 12.9411 14.7167 12.704C14.9434 12.3733 15.1517 12.0379 15.3825 11.7085C15.6938 11.2631 15.7879 10.7626 16.0809 10.3063C16.1857 10.1433 16.2759 9.79591 16.4374 9.66695C16.5596 9.56893 16.7917 9.62015 16.9397 9.62015H17.2915C17.5606 9.62015 17.8351 9.61807 18.1118 9.62769C18.5101 9.64147 18.9562 9.54995 19.3512 9.60585C21.0555 9.84635 17.209 13.4897 17.4092 14.1403C17.5476 14.5895 18.4251 15.0916 18.7417 15.4595C19.1622 15.9496 20.4564 16.9238 19.45 17.5543Z" fill="#4C75A3"/>
</svg>
