<svg width="21" height="21" viewBox="0 0 21 21" fill="none" xmlns="http://www.w3.org/2000/svg">
<g opacity="0.2">
<path d="M9.625 9.625V6.125H11.375V9.625H14.875V11.375H11.375V14.875H9.625V11.375H6.125V9.625H9.625ZM10.5 19.25C5.66738 19.25 1.75 15.3326 1.75 10.5C1.75 5.66738 5.66738 1.75 10.5 1.75C15.3326 1.75 19.25 5.66738 19.25 10.5C19.25 15.3326 15.3326 19.25 10.5 19.25ZM10.5 17.5C12.3565 17.5 14.137 16.7625 15.4497 15.4497C16.7625 14.137 17.5 12.3565 17.5 10.5C17.5 8.64348 16.7625 6.86301 15.4497 5.55025C14.137 4.2375 12.3565 3.5 10.5 3.5C8.64348 3.5 6.86301 4.2375 5.55025 5.55025C4.2375 6.86301 3.5 8.64348 3.5 10.5C3.5 12.3565 4.2375 14.137 5.55025 15.4497C6.86301 16.7625 8.64348 17.5 10.5 17.5Z" fill="black"/>
</g>
</svg>
