<svg width="32" height="32" viewBox="0 0 32 32" fill="none" xmlns="http://www.w3.org/2000/svg">
<path d="M16 32C24.8366 32 32 24.8366 32 16C32 7.16344 24.8366 0 16 0C7.16344 0 0 7.16344 0 16C0 24.8366 7.16344 32 16 32Z" fill="#039BE5"/>
<path d="M7.32144 15.6531L22.7481 9.70512C23.4641 9.44645 24.0894 9.87979 23.8574 10.9625L23.8588 10.9611L21.2321 23.3358C21.0374 24.2131 20.5161 24.4265 19.7868 24.0131L15.7868 21.0651L13.8574 22.9238C13.6441 23.1371 13.4641 23.3171 13.0508 23.3171L13.3348 19.2465L20.7481 12.5491C21.0708 12.2651 20.6761 12.1051 20.2508 12.3878L11.0894 18.1558L7.14011 16.9238C6.28277 16.6518 6.26411 16.0665 7.32144 15.6531Z" fill="white"/>
</svg>
