<svg width="32" height="32" viewBox="0 0 32 32" fill="none" xmlns="http://www.w3.org/2000/svg">
<path d="M16 32C24.8366 32 32 24.8366 32 16C32 7.16344 24.8366 0 16 0C7.16344 0 0 7.16344 0 16C0 24.8366 7.16344 32 16 32Z" fill="#6F3FAA"/>
<path d="M24.4642 11.2453L24.459 11.2241C24.0315 9.49583 22.1041 7.64133 20.3341 7.25552L20.3141 7.25139C17.4513 6.70527 14.5485 6.70527 11.6862 7.25139L11.6656 7.25552C9.89627 7.64133 7.96884 9.49595 7.54077 11.2241L7.53602 11.2453C7.00752 13.6588 7.00752 16.1066 7.53602 18.5201L7.54077 18.5413C7.95065 20.1958 9.73446 21.9651 11.4384 22.4517V24.381C11.4384 25.0793 12.2893 25.4222 12.7732 24.9183L14.7279 22.8865C15.1519 22.9101 15.5761 22.9234 16.0001 22.9234C17.4412 22.9234 18.883 22.7871 20.3141 22.5141L20.334 22.51C22.104 22.1241 24.0314 20.2695 24.4589 18.5413L24.4641 18.5202C24.9926 16.1066 24.9926 13.659 24.4642 11.2453ZM22.9173 18.1702C22.6318 19.2978 21.1685 20.6995 20.0057 20.9585C18.4835 21.248 16.9492 21.3717 15.4165 21.3293C15.386 21.3284 15.3566 21.3403 15.3355 21.3621C15.1179 21.5854 13.9083 22.8273 13.9083 22.8273L12.3903 24.3853C12.2793 24.501 12.0843 24.4222 12.0843 24.2625V21.0665C12.0843 21.0137 12.0466 20.9689 11.9947 20.9586C11.9944 20.9585 11.9941 20.9585 11.9938 20.9585C10.8311 20.6995 9.36821 19.2977 9.08227 18.1701C8.60659 15.9885 8.60659 13.7769 9.08227 11.5953C9.36821 10.4677 10.8311 9.06595 11.9938 8.80695C14.6523 8.30133 17.3478 8.30133 20.0058 8.80695C21.1691 9.06595 22.6319 10.4677 22.9173 11.5953C23.3935 13.777 23.3935 15.9886 22.9173 18.1702Z" fill="white"/>
<path d="M18.5295 19.6456C18.3507 19.5913 18.1804 19.5548 18.0221 19.4893C16.3826 18.8091 14.8739 17.9316 13.6788 16.5865C12.9992 15.8216 12.4673 14.9581 12.0176 14.0442C11.8044 13.6108 11.6247 13.1605 11.4415 12.713C11.2745 12.305 11.5205 11.8835 11.7795 11.576C12.0226 11.2874 12.3354 11.0667 12.6741 10.9039C12.9385 10.7769 13.1993 10.8501 13.3924 11.0742C13.8098 11.5587 14.1933 12.0679 14.5037 12.6296C14.6946 12.975 14.6422 13.3973 14.2961 13.6323C14.212 13.6894 14.1354 13.7566 14.0571 13.8211C13.9883 13.8776 13.9237 13.9348 13.8766 14.0113C13.7905 14.1514 13.7864 14.3167 13.8418 14.469C14.2685 15.6416 14.9876 16.5534 16.168 17.0446C16.3568 17.1232 16.5465 17.2146 16.7641 17.1893C17.1285 17.1468 17.2465 16.747 17.5018 16.5382C17.7514 16.3341 18.0704 16.3314 18.3392 16.5016C18.6082 16.6718 18.8688 16.8544 19.1279 17.0391C19.3823 17.2204 19.6355 17.3976 19.87 17.6043C20.0957 17.8029 20.1733 18.0636 20.0463 18.3331C19.8138 18.8269 19.4753 19.2376 18.9873 19.4999C18.8495 19.5738 18.6848 19.5977 18.5295 19.6456C18.6848 19.5977 18.3507 19.5913 18.5295 19.6456Z" fill="white"/>
<path d="M16.0044 10.3392C18.1487 10.3994 19.91 11.8224 20.2874 13.9424C20.3517 14.3037 20.3746 14.6729 20.4032 15.0396C20.4153 15.1938 20.3279 15.3403 20.1616 15.3424C19.9897 15.3444 19.9124 15.2005 19.9011 15.0465C19.8791 14.7414 19.8637 14.4348 19.8217 14.1323C19.5997 12.5349 18.326 11.2133 16.736 10.9297C16.4967 10.887 16.2519 10.8759 16.0095 10.8504C15.8563 10.8344 15.6557 10.8251 15.6217 10.6346C15.5933 10.4749 15.7281 10.3478 15.8801 10.3396C15.9213 10.3372 15.9629 10.3391 16.0044 10.3392C15.9629 10.3391 18.1488 10.3994 16.0044 10.3392Z" fill="white"/>
<path d="M19.2632 14.5635C19.2597 14.5903 19.2578 14.6533 19.2421 14.7125C19.1852 14.9278 18.8587 14.9547 18.7837 14.7375C18.7613 14.6731 18.758 14.5997 18.7579 14.5303C18.7572 14.0762 18.6585 13.6225 18.4294 13.2273C18.194 12.8211 17.8342 12.4798 17.4124 12.2731C17.1573 12.1482 16.8815 12.0705 16.6018 12.0243C16.4797 12.0041 16.3562 11.9919 16.2333 11.9748C16.0845 11.9541 16.005 11.8593 16.0122 11.7126C16.0187 11.5753 16.1192 11.4763 16.2689 11.4849C16.761 11.5128 17.2363 11.6193 17.6739 11.8509C18.5635 12.3221 19.0718 13.0657 19.2202 14.0588C19.2268 14.1038 19.2376 14.1483 19.241 14.1935C19.2494 14.3048 19.2547 14.4164 19.2632 14.5635C19.2547 14.4164 19.2597 14.5902 19.2632 14.5635Z" fill="white"/>
<path d="M17.9296 14.5117C17.7502 14.515 17.6542 14.4156 17.6357 14.2512C17.6229 14.1366 17.6126 14.0204 17.5852 13.9087C17.5314 13.6889 17.4146 13.4853 17.2297 13.3506C17.1424 13.287 17.0435 13.2407 16.9399 13.2107C16.8084 13.1727 16.6716 13.1832 16.5404 13.151C16.3979 13.1161 16.319 13.0006 16.3414 12.8669C16.3618 12.7452 16.4802 12.6502 16.6132 12.6599C17.4446 12.7199 18.0388 13.1497 18.1236 14.1284C18.1297 14.1975 18.1367 14.2704 18.1214 14.3366C18.095 14.4495 18.0112 14.5062 17.9296 14.5117C18.0112 14.5062 17.7502 14.5149 17.9296 14.5117Z" fill="white"/>
<path d="M18.5293 19.6453C18.6847 19.5974 18.3505 19.591 18.5293 19.6453V19.6453Z" fill="white"/>
<path d="M16.0109 10.3401C16.0087 10.3401 16.0067 10.3399 16.0046 10.3399C16.0026 10.3398 16.0052 10.3399 16.0109 10.3401Z" fill="white"/>
<path d="M16.0051 10.3389C16.0069 10.3389 16.0087 10.3391 16.0105 10.3391C16.1295 10.3433 18.065 10.3966 16.0051 10.3389Z" fill="white"/>
<path d="M19.2632 14.5638C19.2547 14.4166 19.2597 14.5904 19.2632 14.5638V14.5638Z" fill="white"/>
<path d="M17.9298 14.5117C17.9327 14.5115 17.9354 14.5101 17.9381 14.5098C17.9305 14.5098 17.9188 14.51 17.9067 14.5104C17.9145 14.5106 17.9217 14.5118 17.9298 14.5117Z" fill="white"/>
<path d="M17.9296 14.5121C17.9216 14.5122 17.9144 14.511 17.9067 14.5107C17.8679 14.5118 17.8278 14.5139 17.9296 14.5121Z" fill="white"/>
<path d="M17.9379 14.5098C17.9351 14.5101 17.9324 14.5115 17.9297 14.5117C17.9508 14.5103 17.949 14.5098 17.9379 14.5098Z" fill="white"/>
</svg>
