<svg width="32" height="32" viewBox="0 0 32 32" fill="none" xmlns="http://www.w3.org/2000/svg">
<path d="M16 32C24.8366 32 32 24.8366 32 16C32 7.16344 24.8366 0 16 0C7.16344 0 0 7.16344 0 16C0 24.8366 7.16344 32 16 32Z" fill="#75B73B"/>
<path d="M15.5524 6.77777C10.6756 7.00977 6.82715 11.0713 6.84184 15.9535C6.84634 17.4405 7.20534 18.844 7.83871 20.0844L6.8664 24.804C6.81384 25.0594 7.04409 25.283 7.29771 25.2228L11.9224 24.1272C13.1106 24.7191 14.4451 25.0609 15.8575 25.0825C20.8421 25.1586 24.9982 21.2009 25.1538 16.2181C25.3201 10.877 20.912 6.52246 15.5524 6.77777ZM21.0707 20.9958C19.7164 22.3501 17.9155 23.0961 16.0001 23.0961C14.8786 23.0961 13.8047 22.8444 12.8085 22.3482L12.1646 22.0273L9.32896 22.699L9.92578 19.8018L9.60859 19.1803C9.09134 18.1675 8.82909 17.0723 8.82909 15.9251C8.82909 14.0096 9.57503 12.2089 10.9293 10.8545C12.2716 9.51209 14.1018 8.75421 16.0002 8.75421C17.9155 8.75421 19.7163 9.50015 21.0706 10.8545C22.425 12.2088 23.1709 14.0096 23.1709 15.9249C23.171 17.8234 22.413 19.6535 21.0707 20.9958Z" fill="white"/>
<path d="M20.4446 17.9112L18.6706 17.4018C18.4376 17.335 18.1863 17.4012 18.0164 17.5743L17.5825 18.0162C17.3996 18.2027 17.1221 18.2625 16.88 18.1646C16.0408 17.825 14.2755 16.2553 13.8249 15.4705C13.6947 15.244 13.7163 14.961 13.876 14.7541L14.2546 14.2642C14.403 14.0723 14.4343 13.8143 14.3362 13.5925L13.5899 11.9045C13.4111 11.5002 12.8945 11.3825 12.5569 11.668C12.0619 12.0868 11.4744 12.723 11.4031 13.428C11.2772 14.6709 11.8103 16.2376 13.8258 18.1189C16.1543 20.2925 18.0191 20.5795 19.2334 20.2854C19.9221 20.1187 20.4725 19.4501 20.8196 18.9025C21.0566 18.529 20.8693 18.0332 20.4446 17.9112Z" fill="white"/>
</svg>
