<svg width="119" height="58" viewBox="0 0 119 58" fill="none" xmlns="http://www.w3.org/2000/svg">
<path d="M119 0H0V58H119V0Z" fill="white"/>
<path d="M19.2863 19.9179C18.9469 20.2023 18.5534 20.4161 18.1292 20.5464C17.7196 20.6732 17.2934 20.7389 16.8645 20.7412C16.3286 20.7489 15.7982 20.6327 15.3152 20.4018C14.8692 20.1854 14.478 19.8717 14.1707 19.4842C13.8476 19.0792 13.6012 18.6191 13.4435 18.1266C13.126 17.1258 13.115 16.0538 13.4119 15.0468C13.5389 14.5621 13.7531 14.1043 14.0442 13.6955C14.3386 13.2765 14.7259 12.9303 15.1761 12.6836C15.6823 12.4258 16.2454 12.2983 16.8139 12.3127C17.2411 12.3142 17.6663 12.3713 18.0786 12.4824C18.5149 12.6003 18.9234 12.8033 19.28 13.0795C19.671 13.3972 19.9646 13.8174 20.1274 14.2926L23.523 11.9419C22.9324 10.875 22.0427 10.0016 20.962 9.42783C19.7243 8.77055 18.337 8.44151 16.934 8.47247C15.7473 8.45502 14.5705 8.68854 13.4815 9.15756C12.4999 9.5864 11.6175 10.2111 10.8889 10.9928C10.1912 11.7336 9.64187 12.5996 9.27008 13.5446C8.91146 14.4345 8.72276 15.383 8.71362 16.3416C8.71474 17.3712 8.91436 18.391 9.3017 19.3459C9.6914 20.3221 10.2547 21.2205 10.9648 21.9983C11.6855 22.7879 12.5557 23.4287 13.5257 23.8838C14.5473 24.3635 15.6651 24.6064 16.7949 24.5941C17.7394 24.5883 18.6775 24.4399 19.5772 24.1541C20.486 23.8809 21.3414 23.4558 22.1066 22.8971C22.8087 22.3841 23.3574 21.6911 23.6938 20.8921L20.0894 18.7551C19.9348 19.2089 19.6569 19.6114 19.2863 19.9179Z" fill="#0E7131"/>
<path d="M31.3955 24.5061H35.8093V12.363H40.4317V8.53532H26.7542V12.363H31.3955V24.5061Z" fill="#0E7131"/>
<path d="M47.9186 19.6036H50.5492C51.5325 19.6228 52.4984 19.3444 53.3188 18.8054C54.1022 18.2835 54.7413 17.5747 55.1779 16.7438C55.6071 15.9166 55.8243 14.9969 55.8102 14.0663C55.8099 13.3812 55.6767 12.7027 55.4182 12.0676C55.1553 11.411 54.7762 10.8065 54.299 10.2826C53.8102 9.75713 53.2241 9.33031 52.5727 9.02557C51.8947 8.7079 51.1532 8.54674 50.4037 8.55418H43.448V24.5123H47.8744L47.9186 19.6036ZM47.9186 12.363H50.1382C50.3329 12.3642 50.5242 12.4139 50.6946 12.5076C50.904 12.6247 51.0702 12.8053 51.1689 13.023C51.3114 13.3518 51.3763 13.7087 51.3586 14.0663C51.3832 14.4116 51.3359 14.7583 51.2195 15.0845C51.1382 15.3041 50.9901 15.493 50.7958 15.625C50.6427 15.7278 50.462 15.7826 50.2773 15.7822H47.9186V12.363Z" fill="#0E7131"/>
<path d="M100.542 7.70568C101.341 8.04364 102.203 8.21067 103.071 8.19592C103.94 8.20826 104.801 8.04133 105.601 7.70568C106.298 7.41052 106.903 6.93524 107.352 6.32921C107.774 5.74792 107.996 5.04701 107.985 4.33051H105.133C105.142 4.57788 105.098 4.82439 105.003 5.05325C104.908 5.28211 104.765 5.48793 104.583 5.65669C104.161 6.01323 103.618 6.19741 103.065 6.17208C102.788 6.18831 102.511 6.14879 102.251 6.0559C101.99 5.96301 101.751 5.81867 101.547 5.63155C101.377 5.46895 101.24 5.27388 101.147 5.05793C101.054 4.84198 101.005 4.60957 101.004 4.37451H98.1518C98.1408 5.091 98.3625 5.79192 98.7841 6.37321C99.242 6.96332 99.8483 7.42294 100.542 7.70568Z" fill="#0E7131"/>
<path d="M106.17 8.91872L100.232 18.6357V8.91872H95.8184V24.8832H100.011L105.873 15.1725V24.8832H110.286V8.91872H106.17Z" fill="#0E7131"/>
<path d="M19.2863 44.5371C18.9468 44.8215 18.5533 45.0353 18.1291 45.1656C17.7193 45.2905 17.293 45.354 16.8644 45.3541C16.3293 45.3607 15.7997 45.2468 15.3152 45.021C14.8617 44.7993 14.4641 44.4793 14.1517 44.0845C13.8366 43.6819 13.5968 43.2263 13.4435 42.7395C13.126 41.7387 13.115 40.6667 13.4118 39.6597C13.5388 39.175 13.753 38.7172 14.0442 38.3084C14.3356 37.8884 14.7236 37.5437 15.1761 37.3028C15.6822 37.045 16.2453 36.9175 16.8138 36.9319C17.241 36.9334 17.6662 36.9905 18.0785 37.1016C18.5159 37.2169 18.9248 37.4201 19.2799 37.6987C19.671 38.0164 19.9645 38.4366 20.1273 38.9118L23.504 36.5297C22.9134 35.4628 22.0237 34.5893 20.943 34.0156C19.7053 33.3583 18.318 33.0293 16.915 33.0602C15.7283 33.0428 14.5514 33.2763 13.4624 33.7453C12.4809 34.1742 11.5985 34.7989 10.8698 35.5806C10.1708 36.3204 9.62129 37.1867 9.25104 38.1324C8.88384 39.0439 8.69498 40.0166 8.69458 40.9985C8.70315 42.0271 8.90919 43.0447 9.30163 43.9965C9.69133 44.9727 10.2547 45.8712 10.9647 46.6489C11.6872 47.4366 12.557 48.077 13.5257 48.5345C14.5477 49.0122 15.6655 49.2529 16.7949 49.2384C17.739 49.2348 18.6772 49.0886 19.5771 48.8047C20.487 48.5341 21.3428 48.1088 22.1065 47.5477C22.8095 47.0383 23.3585 46.347 23.6937 45.549L20.0767 43.368C19.9235 43.8211 19.6505 44.2249 19.2863 44.5371Z" fill="#4E4D4D"/>
<path d="M41.0387 33.0351H36.195L32.0532 38.9055H31.1489V33.0351H26.7542V48.9996H31.1489V42.8841H31.8698L36.2203 48.9996H41.5635L35.3793 40.7471L41.0387 33.0351Z" fill="#4E4D4D"/>
<path d="M47.786 37.7113C47.7228 39.358 47.6216 40.6884 47.4825 41.7024C47.393 42.4909 47.1929 43.2631 46.8881 43.9965C46.711 44.448 46.3857 44.8267 45.9649 45.0713C45.5511 45.2689 45.0959 45.3658 44.637 45.3541V49.1253C45.7384 49.1512 46.8366 48.9961 47.8872 48.6664C48.7583 48.385 49.5262 47.8535 50.0941 47.1391C50.7462 46.2177 51.1906 45.1672 51.3967 44.0594C51.7312 42.4025 51.9237 40.7204 51.9721 39.0312L52.067 36.8691H55.1907V49.0247H59.6171V33.0351H47.9631L47.786 37.7113Z" fill="#4E4D4D"/>
<path d="M67.8184 33.0351L62.6775 49.0247H67.1861L68.0144 45.8821H72.5546L73.3893 49.0247H77.8726L72.757 33.0602L67.8184 33.0351ZM68.7922 42.9532L70.2845 37.2965L71.7832 42.9532H68.7922Z" fill="#4E4D4D"/>
<path d="M96.1599 33.0351H84.4995L84.3667 37.7113C84.3225 38.9684 84.2403 40.0934 84.1264 41.0299C84.0437 41.8174 83.8892 42.5957 83.6648 43.3554C83.5307 43.8613 83.2819 44.33 82.9376 44.7256C82.8139 44.8667 82.6614 44.98 82.4902 45.058C82.3191 45.1361 82.1332 45.177 81.9449 45.1782H80.9395V52.0919H84.7904V49.0247H94.5727V52.0856H98.4173V45.1719H96.1535L96.1599 33.0351ZM91.7335 45.1782H86.9467C87.3636 44.747 87.6714 44.2235 87.8446 43.6508C88.0694 42.9133 88.2198 42.1553 88.2936 41.3882C88.3947 40.5082 88.458 39.5026 88.4896 38.3398L88.5338 36.8565H91.7461L91.7335 45.1782Z" fill="#4E4D4D"/>
<path d="M67.496 24.8832H84.1645C85.3251 24.8987 86.4752 24.6628 87.5348 24.1918C88.5191 23.7421 89.4028 23.1009 90.1337 22.3062C90.8517 21.5345 91.4198 20.6374 91.8094 19.6602C92.1967 18.6923 92.3941 17.6597 92.3912 16.6181C92.3908 15.5618 92.1757 14.5164 91.7589 13.5446C91.3465 12.5773 90.7593 11.6932 90.0262 10.9363C89.278 10.1636 88.3813 9.54807 87.3894 9.12614C86.349 8.69118 85.2299 8.47298 84.1012 8.48505H67.5402C66.4123 8.47891 65.2952 8.70355 64.2584 9.145C63.2664 9.56692 62.3698 10.1825 61.6215 10.9551C60.8865 11.7105 60.299 12.5949 59.8889 13.5635C59.4723 14.5353 59.2572 15.5806 59.2566 16.637C59.2557 17.679 59.4553 18.7116 59.8447 19.679C60.232 20.6559 60.798 21.5531 61.514 22.3251C62.2488 23.1183 63.1342 23.7592 64.1193 24.2107C65.1823 24.6763 66.3346 24.9058 67.496 24.8832ZM61.6215 18.9876C61.3197 18.2403 61.1651 17.4423 61.1663 16.637C61.1632 15.8343 61.3223 15.0393 61.6342 14.2989C61.9555 13.5432 62.4143 12.8528 62.9874 12.2625C63.5606 11.6656 64.2517 11.1927 65.0172 10.8734C65.8174 10.5372 66.6779 10.3662 67.5466 10.3706H82.0904H83.9874H84.1518C84.9935 10.3708 85.8262 10.5419 86.599 10.8734C87.3636 11.1943 88.0544 11.6669 88.6288 12.2625C89.2005 12.8503 89.6572 13.5387 89.9757 14.2926C90.29 15.0344 90.4492 15.8321 90.4436 16.637C90.4467 17.4419 90.2943 18.2399 89.9946 18.9876C89.6936 19.7477 89.2517 20.4448 88.692 21.0429C88.128 21.6502 87.4461 22.1377 86.6875 22.4759C85.8789 22.8366 85 23.0148 84.1139 22.9976H67.496C66.6099 23.0148 65.7309 22.8366 64.9224 22.4759C64.1656 22.1375 63.4859 21.65 62.9242 21.0429C62.3624 20.4464 61.9203 19.7488 61.6215 18.9876Z" fill="#0E7131"/>
<path d="M80.8825 19.7482C81.6646 19.7501 82.4292 19.5179 83.0767 19.0819L85.3658 21.3697C85.4514 21.4497 85.5645 21.4943 85.682 21.4943C85.7995 21.4943 85.9125 21.4497 85.9982 21.3697L86.4408 20.9361C86.5173 20.849 86.5594 20.7374 86.5594 20.6218C86.5594 20.5062 86.5173 20.3946 86.4408 20.3075L84.158 18.0637C84.5967 17.4201 84.8302 16.6601 84.8283 15.8827C84.8283 15.1058 84.5965 14.3463 84.1623 13.7003C83.728 13.0543 83.1108 12.5508 82.3886 12.2535C81.6665 11.9562 80.8718 11.8784 80.1052 12.03C79.3385 12.1815 78.6343 12.5557 78.0816 13.105C77.5289 13.6544 77.1525 14.3544 77 15.1164C76.8475 15.8784 76.9258 16.6682 77.2249 17.386C77.524 18.1038 78.0306 18.7173 78.6805 19.149C79.3304 19.5806 80.0945 19.811 80.8762 19.811L80.8825 19.7482ZM80.8825 13.4629C81.3578 13.4629 81.8223 13.603 82.2175 13.8655C82.6127 14.1279 82.9206 14.5009 83.1025 14.9373C83.2844 15.3737 83.332 15.854 83.2392 16.3173C83.1465 16.7806 82.9177 17.2061 82.5816 17.5402C82.2456 17.8742 81.8174 18.1017 81.3513 18.1938C80.8852 18.286 80.402 18.2387 79.963 18.0579C79.5239 17.8771 79.1486 17.571 78.8846 17.1782C78.6206 16.7855 78.4796 16.3237 78.4796 15.8513C78.4754 15.535 78.5345 15.2211 78.6534 14.9277C78.7723 14.6343 78.9486 14.3672 79.1721 14.1421C79.3957 13.917 79.662 13.7383 79.9556 13.6163C80.2492 13.4943 80.5643 13.4315 80.8825 13.4315V13.4629Z" fill="#0E7131"/>
</svg>
