<svg width="21" height="26" viewBox="0 0 21 26" fill="none" xmlns="http://www.w3.org/2000/svg">
<path d="M20 10.5295C20 5.25353 15.7505 1 10.5204 1C5.24946 1 1 5.25353 1 10.5295C1 14.824 3.86022 18.464 7.7828 19.6501C9.90753 21.8178 10.4796 24.3535 10.4796 24.3535H10.643C10.643 24.3535 11.2151 21.7769 13.4215 19.6092C17.2215 18.3413 20 14.7422 20 10.5295Z" stroke="#33BA9C" stroke-width="2"/>
<path d="M10.6014 13.3519C12.1811 13.3519 13.4616 12.0701 13.4616 10.4889C13.4616 8.90777 12.1811 7.62598 10.6014 7.62598C9.02177 7.62598 7.74121 8.90777 7.74121 10.4889C7.74121 12.0701 9.02177 13.3519 10.6014 13.3519Z" stroke="#33BA9C" stroke-width="2"/>
</svg>
