<svg width="46" height="46" viewBox="0 0 46 46" fill="none" xmlns="http://www.w3.org/2000/svg">
<g clip-path="url(#clip0)">
<rect x="23.1924" y="11" width="16" height="13" transform="rotate(45 23.1924 11)" fill="#E5F7F2"/>
<path d="M1.09998 28.4H38.1C41.4 28.4 44 31 44 34.3V44.4H6.99998C3.69998 44.4 1.09998 41.8 1.09998 38.5V28.4Z" fill="white" stroke="#33BA9C" stroke-width="1.9988" stroke-miterlimit="10"/>
<path d="M9.39995 38.8C10.8911 38.8 12.1 37.5912 12.1 36.1C12.1 34.6089 10.8911 33.4 9.39995 33.4C7.90878 33.4 6.69995 34.6089 6.69995 36.1C6.69995 37.5912 7.90878 38.8 9.39995 38.8Z" stroke="#33BA9C" stroke-width="2" stroke-miterlimit="10"/>
<path d="M1 28.9V6.9C1 3.6 3.6 1 6.9 1H17V17.2" stroke="#33BA9C" stroke-width="2" stroke-miterlimit="10"/>
<path d="M1.09998 14.4H17.1" stroke="#33BA9C" stroke-width="2" stroke-miterlimit="10"/>
<path d="M1.09998 28.4H17.1" stroke="#33BA9C" stroke-width="2" stroke-miterlimit="10"/>
<path d="M6.59998 28.1L28.9 5.89999C31.2 3.59999 34.9 3.59999 37.2 5.89999L44.3 13L29.2 28.2" stroke="#33BA9C" stroke-width="2" stroke-miterlimit="10"/>
<path d="M23.2 10.9L34.5 22.2" stroke="#33BA9C" stroke-width="2" stroke-miterlimit="10"/>
<path d="M13.3 20.8L20.6 28.2" stroke="#33BA9C" stroke-width="2" stroke-miterlimit="10"/>
</g>
<defs>
<clipPath id="clip0">
<rect width="45.8" height="45.4" fill="white"/>
</clipPath>
</defs>
</svg>
