<svg width="50" height="43" viewBox="0 0 50 43" fill="none" xmlns="http://www.w3.org/2000/svg">
<path d="M37.2472 15.1056L23.8123 28.5405L28.762 33.4902L42.1969 20.0553L37.2472 15.1056Z" fill="#E5F7F2"/>
<path d="M12 42H6.6C3.7 42 1 39.7 1 36.8V6.6C1 3.7 3.5 1 6.4 1H6.6C9.5 1 12 3.7 12 6.6V36.3C12 36.3 9.5 33.9 6.8 33.7C4.1 33.5 2.5 35 2 35.7" stroke="#4DC2A8" stroke-width="2" stroke-miterlimit="10"/>
<path d="M12 42H49V6H12" stroke="#4DC2A8" stroke-width="2" stroke-miterlimit="10"/>
<path d="M27.3 34.9L22 35.2999L22.3 30L38.3 14C39.7 12.6 41.9 12.6 43.2 14C44.6 15.4 44.6 17.6 43.2 18.9L27.3 34.9Z" stroke="#4DC2A8" stroke-width="2" stroke-miterlimit="10"/>
<path d="M37.2 15.1L42.2 20.1" stroke="#4DC2A8" stroke-width="2" stroke-miterlimit="10"/>
<path d="M23.8 28.5L29.5 34.2" stroke="#4DC2A8" stroke-width="2" stroke-miterlimit="10"/>
</svg>
