<svg width="55" height="48" viewBox="0 0 55 48" fill="none" xmlns="http://www.w3.org/2000/svg">
<g clip-path="url(#clip0)">
<path d="M53.1302 5.34C53.1302 5.34 52.6502 19.44 49.4102 23.42C44.8502 29.03 34.7002 29.5 31.6602 24.52C27.7402 18.1 31.2902 11.26 35.7802 9.08C42.4902 5.84 53.1302 5.34 53.1302 5.34Z" fill="#E5F7F2" stroke="#33BA9C" stroke-width="2" stroke-miterlimit="10"/>
<path d="M1.04004 1.05C1.04004 1.05 1.52004 15.15 4.76004 19.13C9.32004 24.74 19.47 25.21 22.51 20.23C26.43 13.81 22.88 6.97 18.39 4.79C11.68 1.56 1.04004 1.05 1.04004 1.05Z" fill="#E5F7F2" stroke="#33BA9C" stroke-width="2" stroke-miterlimit="10"/>
<path d="M11.8896 10.58C11.8896 10.58 18.0396 13.83 21.1896 22.58C25.7896 35.38 25.9496 47.5 25.9496 47.5C25.9496 47.5 27.9596 31.32 31.3296 25.12C35.5596 17.35 42.9897 15.49 42.9897 15.49" stroke="#33BA9C" stroke-width="2" stroke-miterlimit="10"/>
</g>
<defs>
<clipPath id="clip0">
<rect width="54.17" height="47.62" fill="white"/>
</clipPath>
</defs>
</svg>
