<svg width="67" height="57" viewBox="0 0 67 57" fill="none" xmlns="http://www.w3.org/2000/svg">
<g clip-path="url(#clip0)">
<path d="M33.1 55.35C42.7 55.35 51.26 50.85 56.76 43.84C58.11 42.12 59.28 40.25 60.23 38.26C58.35 34.35 55.65 30.9 52.36 28.15C47.14 23.79 40.43 21.17 33.1 21.17C25.69 21.17 18.91 23.85 13.67 28.29C10.45 31.02 7.80996 34.41 5.95996 38.26C7.45996 41.38 9.47996 44.21 11.91 46.62C17.35 52.01 24.84 55.35 33.1 55.35Z" stroke="#33BA9C" stroke-width="2" stroke-miterlimit="10" stroke-linejoin="round"/>
<path d="M33.0999 51.44C40.379 51.44 46.2799 45.5391 46.2799 38.26C46.2799 30.9809 40.379 25.08 33.0999 25.08C25.8208 25.08 19.9199 30.9809 19.9199 38.26C19.9199 45.5391 25.8208 51.44 33.0999 51.44Z" fill="#E5F7F2" stroke="#33BA9C" stroke-width="2" stroke-miterlimit="10" stroke-linejoin="round"/>
<line x1="33" y1="21" x2="33" y2="5" stroke="#33BA9C" stroke-width="2"/>
<line x1="45.2929" y1="23.6066" x2="56.6066" y2="12.2929" stroke="#33BA9C" stroke-width="2"/>
<line x1="45.2929" y1="23.6066" x2="56.6066" y2="12.2929" stroke="#33BA9C" stroke-width="2"/>
<line y1="-1" x2="16" y2="-1" transform="matrix(0.707107 0.707107 0.707107 -0.707107 9 13)" stroke="#33BA9C" stroke-width="2"/>
</g>
<defs>
<clipPath id="clip0">
<rect width="66.2" height="56.35" fill="white"/>
</clipPath>
</defs>
</svg>
