<svg width="53" height="52" viewBox="0 0 53 52" fill="none" xmlns="http://www.w3.org/2000/svg">
<g clip-path="url(#clip0)">
<path d="M46.1599 21.76C45.1099 18.58 43.1799 15.81 40.6499 13.73C40.7099 13.18 40.7599 12.64 40.8099 12.16C41.1599 8.82 44.2599 3.35 38.6499 4.73C35.8199 5.43 33.3899 7.45 31.8099 9.92C31.0699 9.82 30.3199 9.76 29.5499 9.76H22.4699C22.5999 10.44 22.6799 11.13 22.6799 11.85C22.6799 17.84 17.8299 22.69 11.8399 22.69C8.93988 22.69 6.31988 21.55 4.36988 19.69C3.26988 21.98 2.62988 24.54 2.62988 27.26C2.62988 33.42 5.81988 38.83 10.6299 41.94V50.76H20.6299V44.76H27.6299V50.76H37.6299V42.78C41.6299 40.69 44.7199 37.11 46.1599 32.76H51.6299V21.76H46.1599Z" fill="#E5F7F2" stroke="#33BA9C" stroke-width="2" stroke-miterlimit="10"/>
<path d="M22.48 9.76C21.51 4.77 17.12 1 11.84 1C5.85 1 1 5.85 1 11.84C1 14.93 2.3 17.71 4.37 19.69" stroke="#33BA9C" stroke-width="2" stroke-miterlimit="10"/>
</g>
<defs>
<clipPath id="clip0">
<rect width="52.63" height="51.76" fill="white"/>
</clipPath>
</defs>
</svg>
