<svg width="47" height="53" viewBox="0 0 47 53" fill="none" xmlns="http://www.w3.org/2000/svg">
<rect x="5" y="20" width="11" height="16" fill="#E5F7F2"/>
<path d="M41 20V47H17V21" fill="#E5F7F2"/>
<path d="M41 20V47H17V21" stroke="#33BA9C" stroke-width="2" stroke-miterlimit="10"/>
<path d="M39.7 21H7.3C3.8 21 1 18.2 1 14.7V7.3C1 3.8 3.8 1 7.3 1H39.8C43.2 1 46 3.8 46 7.3V14.8C46 18.2 43.2 21 39.7 21Z" fill="#E5F7F2" stroke="#33BA9C" stroke-width="2" stroke-miterlimit="10"/>
<path d="M39 53V47" stroke="#33BA9C" stroke-width="2" stroke-miterlimit="10"/>
<path d="M35 53V47" stroke="#33BA9C" stroke-width="2" stroke-miterlimit="10"/>
<path d="M31 53V47" stroke="#33BA9C" stroke-width="2" stroke-miterlimit="10"/>
<path d="M27 53V47" stroke="#33BA9C" stroke-width="2" stroke-miterlimit="10"/>
<path d="M19 53V47" stroke="#33BA9C" stroke-width="2" stroke-miterlimit="10"/>
<path d="M23 53V47" stroke="#33BA9C" stroke-width="2" stroke-miterlimit="10"/>
<path d="M17 37H5V21" stroke="#33BA9C" stroke-width="2" stroke-miterlimit="10"/>
<path d="M7 43V37" stroke="#33BA9C" stroke-width="2" stroke-miterlimit="10"/>
<path d="M11 43V37" stroke="#33BA9C" stroke-width="2" stroke-miterlimit="10"/>
<path d="M17.7 41.7L22.1 37.8L26.7 41.8L31.2999 37.8L36.2999 42.1L40.7999 38.2" stroke="#33BA9C" stroke-width="2" stroke-miterlimit="10"/>
<path d="M5.69995 31.7L10.1 27.8L14.7 31.7L17.3 29.6" stroke="#33BA9C" stroke-width="2" stroke-miterlimit="10"/>
</svg>
