<svg width="255" height="278" viewBox="0 0 255 278" fill="none" xmlns="http://www.w3.org/2000/svg">
<path d="M84.8604 124.92V12H145.86V104" stroke="#33BA9C" stroke-width="2" stroke-miterlimit="10" stroke-linecap="round" stroke-linejoin="round"/>
<path d="M109.86 134H91.46" stroke="#33BA9C" stroke-width="2" stroke-miterlimit="10" stroke-linecap="round" stroke-linejoin="round"/>
<path d="M54.07 146H1V1H229.17V146H211.86" stroke="#33BA9C" stroke-width="2" stroke-miterlimit="10" stroke-linecap="round" stroke-linejoin="round"/>
<path d="M99.22 146H88.75" stroke="#33BA9C" stroke-width="2" stroke-miterlimit="10" stroke-linecap="round" stroke-linejoin="round"/>
<path d="M96.2504 187H44.8604V177H96.2504" stroke="black" stroke-width="2" stroke-miterlimit="10"/>
<path d="M149.46 177H219.86V187H150.47" stroke="black" stroke-width="2" stroke-miterlimit="10"/>
<path d="M105.51 136H141.22C144.4 136 147.02 138.47 147.22 141.64L150.46 192.61C150.68 196.08 147.93 199.01 144.46 199.01H102.28C98.8099 199.01 96.0599 196.08 96.2799 192.61L99.5199 141.64C99.6999 138.47 102.33 136 105.51 136Z" stroke="black" stroke-width="2" stroke-miterlimit="10"/>
<path d="M58.8594 276.001L58.8594 187.001H51.8594L51.8594 276.001H58.8594Z" stroke="black" stroke-width="2" stroke-miterlimit="10"/>
<path d="M213.958 276.002L213.958 187.002H206.958L206.958 276.002H213.958Z" stroke="black" stroke-width="2" stroke-miterlimit="10"/>
<path d="M206.859 251.001V187.001H168.859V251.001H206.859Z" stroke="black" stroke-width="2" stroke-miterlimit="10"/>
<path d="M168.86 218H206.86" stroke="black" stroke-width="2" stroke-miterlimit="10"/>
<path d="M180.86 192H194.86" stroke="black" stroke-width="2" stroke-miterlimit="10"/>
<path d="M180.86 225H194.86" stroke="black" stroke-width="2" stroke-miterlimit="10"/>
<path d="M180.86 276H254.52" stroke="black" stroke-width="2" stroke-miterlimit="10"/>
<path d="M82.8604 177H60.8604L58.8604 157H84.8604L82.8604 177Z" stroke="black" stroke-width="2" stroke-miterlimit="10"/>
<path d="M71.8601 157C71.8601 157 73.0001 146.38 67.7601 139.96C62.5201 133.54 57.6201 130.66 57.6201 130.66C57.6201 130.66 60.4901 133.36 61.0001 138.6C61.5101 143.84 60.0401 147.48 61.5101 150.94C63.2001 154.91 66.5801 157 66.5801 157H71.8601Z" stroke="black" stroke-width="2" stroke-miterlimit="10" stroke-linejoin="round"/>
<path d="M86.0104 123.56C82.6804 127 87.3804 157.9 71.8604 157C72.5804 153.47 71.8904 139.71 86.0104 123.56Z" stroke="black" stroke-width="2" stroke-miterlimit="10" stroke-linejoin="round"/>
<path d="M75.0802 141.46C75.3802 136.28 63.6602 125.5 66.5802 119.17C62.5102 121.14 62.9102 132.29 64.7902 136.63" stroke="black" stroke-width="2" stroke-miterlimit="10" stroke-linejoin="round"/>
<path d="M69.25 129.75C69.25 129.75 69.79 123.05 71.86 119.17C73.93 115.28 75.09 113.76 75.09 113.76C75.09 113.76 74.8 120.69 76.6 124.84C78.4 128.99 78.64 133.86 78.64 133.86" stroke="black" stroke-width="2" stroke-miterlimit="10" stroke-linejoin="round"/>
<path d="M59.8197 157.02C59.8197 157.02 54.9197 151.45 54.0697 146.38C53.2197 141.31 55.3597 136 55.3597 136C55.3597 136 58.0697 138.26 58.8597 140.29C59.6497 142.32 60.9497 144.54 60.9497 144.54" stroke="black" stroke-width="2" stroke-miterlimit="10" stroke-linejoin="round"/>
<path d="M84.15 136C84.15 136 85.84 134.04 89.05 132.69C92.26 131.34 92.26 131.34 92.26 131.34C92.26 131.34 89.56 134.55 89.56 138.61C89.56 142.67 88.88 145.71 88.21 149.43C87.53 153.15 82.46 157.01 82.46 157.01" stroke="black" stroke-width="2" stroke-miterlimit="10" stroke-linejoin="round"/>
<path d="M155.86 103.17V12H216.86V134H211.86" stroke="#33BA9C" stroke-width="2" stroke-miterlimit="10" stroke-linecap="round" stroke-linejoin="round"/>
<path d="M109.86 135.5V108.27C109.86 105.91 111.77 104 114.13 104H154.86H207.59C209.95 104 211.86 105.91 211.86 108.27V162.72C211.86 165.08 209.95 166.99 207.59 166.99H148.83" stroke="black" stroke-width="2" stroke-miterlimit="10"/>
<path d="M109.86 111.73H211.86" stroke="black" stroke-width="2" stroke-miterlimit="10"/>
<path d="M211.86 158.72H148.39" stroke="black" stroke-width="2" stroke-miterlimit="10"/>
<path d="M168.86 167H154.86V173H168.86V167Z" stroke="black" stroke-width="2" stroke-miterlimit="10"/>
<path d="M149.21 173H190.63V177H149.46" stroke="black" stroke-width="2" stroke-miterlimit="10"/>
<path d="M99.8604 205H146.86C151.28 205 154.86 208.58 154.86 213H91.8604C91.8604 208.58 95.4404 205 99.8604 205Z" stroke="black" stroke-width="2" stroke-miterlimit="10"/>
<path d="M158.52 276L153.11 213" stroke="black" stroke-width="2" stroke-miterlimit="10"/>
<path d="M144.86 266V213" stroke="black" stroke-width="2" stroke-miterlimit="10"/>
<path d="M101.86 266V213" stroke="black" stroke-width="2" stroke-miterlimit="10"/>
<path d="M89.1104 276L94.5203 213" stroke="black" stroke-width="2" stroke-miterlimit="10"/>
<path d="M130.86 199V206" stroke="black" stroke-width="2" stroke-miterlimit="10"/>
<path d="M115.86 199V206" stroke="black" stroke-width="2" stroke-miterlimit="10"/>
<path d="M58.8604 134H13.8604V12H74.8604V113.76" stroke="#33BA9C" stroke-width="2" stroke-miterlimit="10" stroke-linecap="round" stroke-linejoin="round"/>
</svg>
