<svg width="246" height="278" viewBox="0 0 246 278" fill="none" xmlns="http://www.w3.org/2000/svg">
<g clip-path="url(#clip0)">
<path d="M34.0996 134H21.0996V12H82.0996V131" stroke="#33BA9C" stroke-width="2" stroke-miterlimit="10" stroke-linecap="round" stroke-linejoin="round"/>
<path d="M236.1 125V146H227.1" stroke="#33BA9C" stroke-width="2" stroke-miterlimit="10" stroke-linecap="round" stroke-linejoin="round"/>
<path d="M18.0996 146H8.09961V1H236.1V60" stroke="#33BA9C" stroke-width="2" stroke-miterlimit="10" stroke-linecap="round" stroke-linejoin="round"/>
<path d="M92.0996 130V12H153.1V131" stroke="#33BA9C" stroke-width="2" stroke-miterlimit="10" stroke-linecap="round" stroke-linejoin="round"/>
<path d="M131.1 134H122.4H115.1" stroke="#33BA9C" stroke-width="2" stroke-miterlimit="10" stroke-linecap="round" stroke-linejoin="round"/>
<path d="M224.1 121V134H211.1" stroke="#33BA9C" stroke-width="2" stroke-miterlimit="10" stroke-linecap="round" stroke-linejoin="round"/>
<path d="M163.1 131V124V69" stroke="#33BA9C" stroke-width="2" stroke-miterlimit="10" stroke-linecap="round" stroke-linejoin="round"/>
<path d="M231.8 181.7C231.5 173 231 149.7 225.4 143C224.9 142.3 224.3 141.7 223.7 141.1C221 138.5 217.8 136.5 214.3 135.1C205 131.4 194.9 131.7 185.1 131.7C175.7 131.7 166.3 131.7 156.9 131.7C145.4 131.7 132.1 131.5 122.4 138.4L122.3 138.3C116.3 134.2 109 132.7 101.9 132.1C93.4996 131.4 84.9996 131.9 76.5996 131.9C67.8996 131.9 59.1996 131.9 50.4996 131.9C39.3996 131.9 26.8996 134 19.3996 143C14.1996 149.3 13.3996 171.9 13.0996 180.1" stroke="black" stroke-width="2" stroke-miterlimit="10"/>
<path d="M27.037 252L22 275H28.6173L38 253.596" stroke="black" stroke-width="2" stroke-miterlimit="10"/>
<path d="M34.2997 217.7C30.7997 213 28.2997 207.5 26.0997 202C22.8997 194.2 14.2997 169 4.09973 185.6C-0.300273 192.8 0.899728 202.6 2.39973 210.5C3.79973 217.6 5.99973 224.4 7.59973 229.2C9.69973 235.1 12.6997 240.9 16.5997 245.9C25.1997 257.2 47.7997 254 60.6997 254C80.4997 254 100.3 254 120.1 254C140.3 254 160.5 254 180.7 254C191.3 254 202 254.3 212.6 253.3C217.7 252.8 223.1 251.3 226.9 247.7C227.5 247.1 228 246.5 228.5 245.8C232.3 240.8 235.4 235.2 237.5 229.3C239.2 224.5 241.4 217.7 242.7 210.6C244.2 202.7 245.4 192.9 241 185.7C230.8 169.1 222.2 194.3 219 202.1C216.5 208.2 213.9 214.3 209.7 219.3" stroke="black" stroke-width="2" stroke-miterlimit="10"/>
<path d="M199.1 234H134.1C128 234 123.1 229.1 123.1 223C123.1 216.9 128 212 134.1 212H199.1C205.2 212 210.1 216.9 210.1 223C210.1 229.1 205.2 234 199.1 234Z" stroke="black" stroke-width="2" stroke-miterlimit="10"/>
<path d="M109.1 234H44.0996C37.9996 234 33.0996 229.1 33.0996 223C33.0996 216.9 37.9996 212 44.0996 212H109.1C115.2 212 120.1 216.9 120.1 223C120.1 229.1 115.2 234 109.1 234Z" stroke="black" stroke-width="2" stroke-miterlimit="10"/>
<path d="M108.6 211.5H81.0999C75.7999 207.6 72.4999 201.7 71.6999 195.3C71.3999 193 69.5999 172.5 74.5999 173.9C75.7999 174.2 76.7999 174.6 76.2999 177.6C75.4999 182.7 73.1999 195.9 78.7999 199.3C78.7999 199.3 78.4999 191.3 80.7999 187.3C83.0999 183.3 84.5999 181.1 87.9999 179.8C91.2999 178.5 92.6999 179.5 94.2999 178.3C95.9999 177.1 96.2999 175 96.4999 174C97.2999 169.4 96.6999 165.2 97.9999 160.7L102 163.7C102 163.7 104.7 163.7 106.8 163.7C108.9 163.7 109.8 163.9 109.8 163.9L113.5 160.1C114.1 163.4 115.4 166.3 116 169.6C116.4 171.8 117 174.8 116.1 176.9C114.7 180.5 111.8 182.5 112.1 183.5C112.4 184.7 112.9 187.3 111.6 189.3C110.3 191.3 107.9 194.8 107.9 194.8L106.9 205.3L106.7 207.6C106.7 207.6 108 208.1 108.7 208.4C109.4 208.7 109.7 209.1 109.7 210.1C109.7 211.1 108.6 211.5 108.6 211.5Z" stroke="black" stroke-width="2" stroke-miterlimit="10" stroke-linecap="round" stroke-linejoin="round"/>
<path d="M102.6 195.8L102.1 210.2" stroke="black" stroke-width="2" stroke-miterlimit="10" stroke-linecap="round" stroke-linejoin="round"/>
<path d="M94.3994 195.7L91.8994 205.3V211.2" stroke="black" stroke-width="2" stroke-miterlimit="10" stroke-linecap="round" stroke-linejoin="round"/>
<path d="M87.3994 200.8L91.8994 205.3" stroke="black" stroke-width="2" stroke-miterlimit="10" stroke-linecap="round" stroke-linejoin="round"/>
<path d="M100.2 170.5L102 168.7L103.7 170.4" stroke="black" stroke-width="2" stroke-miterlimit="10" stroke-linecap="round" stroke-linejoin="round"/>
<path d="M108.2 170.5L110 168.7L111.7 170.4" stroke="black" stroke-width="2" stroke-miterlimit="10" stroke-linecap="round" stroke-linejoin="round"/>
<path d="M217.994 252L223 275H216.521L207 253.391" stroke="black" stroke-width="2" stroke-miterlimit="10"/>
<path d="M236.7 0.800049C216.9 44.3 256.5 82.5 236.1 125.4" stroke="black" stroke-width="2" stroke-miterlimit="10"/>
<path d="M200.4 1.40002C172.4 38.6 225.7 82.2 199.8 123.6" stroke="black" stroke-width="2" stroke-miterlimit="10"/>
<path d="M165.2 1.40002C141.5 32.6 178.6 83.5 164 123.6C164 123.6 172.4 118 180.7 119C189 120 187.4 122 198 123.7C208.7 125.4 215 120.6 220.3 121C228 121.7 236 125.3 236 125.3" stroke="black" stroke-width="2" stroke-miterlimit="10"/>
<path d="M230.7 180.8C231.2 177.8 231.5 174.5 230.9 172C229.9 168.3 226.7 168.3 222.8 167.6C215 166.2 207.3 165.6 199.4 165.2C197 165.1 194.8 164.8 192.6 164.8C189 164.7 185.5 165.3 182.2 168.4C178.4 171.9 176.5 176.8 175.1 181.5C173.2 187.9 171.9 194.4 171 200.9C170.4 205.5 170.5 209 172.6 211.3" stroke="black" stroke-width="2" stroke-miterlimit="10"/>
<path d="M165.2 1.40002H236.1" stroke="black" stroke-width="2" stroke-miterlimit="10"/>
</g>
<defs>
<clipPath id="clip0">
<rect width="245.2" height="278" fill="white"/>
</clipPath>
</defs>
</svg>
