<svg width="37" height="37" viewBox="0 0 37 37" fill="none" xmlns="http://www.w3.org/2000/svg">
<path d="M36.2773 25.0909C35.8782 25.0909 35.5547 25.4145 35.5547 25.8136V26.4162H27.0065V24.3117H29.2743C29.6734 24.3117 29.997 23.9881 29.997 23.589V17.9692C29.997 17.5701 29.6734 17.2465 29.2743 17.2465H27.0065V16.1169C27.0065 10.0864 22.1003 5.18018 16.0698 5.18018H10.9367C4.90619 5.18025 0 10.0864 0 16.1169V20.8828C0 26.9133 4.90619 31.8195 10.9367 31.8195H36.2773C36.6765 31.8195 37 31.4959 37 31.0969V25.8136C37 25.4145 36.6765 25.0909 36.2773 25.0909ZM28.5517 18.6918V22.8664H27.0065V18.6918H28.5517ZM1.44531 20.8829V16.1169C1.44531 10.8834 5.70313 6.62556 10.9367 6.62556H16.0699C21.3034 6.62556 25.5612 10.8834 25.5612 16.1169V30.3743H10.9367C5.70313 30.3742 1.44531 26.1164 1.44531 20.8829ZM35.5547 30.3742H27.0065V27.8615H30.5579V28.5455C30.5579 28.9445 30.8814 29.2681 31.2805 29.2681C31.6797 29.2681 32.0032 28.9445 32.0032 28.5455V27.8615H35.5547V30.3742Z" fill="white"/>
<path d="M13.5037 9.36743C8.48249 9.36743 4.39746 13.4642 4.39746 18.4998C4.39746 23.5354 8.48249 27.6321 13.5037 27.6321C18.5248 27.6321 22.6098 23.5354 22.6098 18.4998C22.6098 13.4642 18.5249 9.36743 13.5037 9.36743ZM13.5037 26.1868C9.27944 26.1868 5.84277 22.7384 5.84277 18.4998C5.84277 14.2612 9.27944 10.8127 13.5037 10.8127C17.7279 10.8127 21.1646 14.2612 21.1646 18.4998C21.1646 22.7384 17.7279 26.1868 13.5037 26.1868Z" fill="white"/>
<path d="M13.5029 12.7302C10.3302 12.7302 7.74902 15.3184 7.74902 18.4998C7.74902 21.6811 10.3302 24.2693 13.5029 24.2693C16.6756 24.2693 19.2567 21.6811 19.2567 18.4998C19.2567 15.3184 16.6756 12.7302 13.5029 12.7302ZM13.5029 22.824C11.1272 22.824 9.19434 20.8842 9.19434 18.4998C9.19434 16.1154 11.1272 14.1755 13.5029 14.1755C15.8786 14.1755 17.8114 16.1154 17.8114 18.4998C17.8114 20.8842 15.8786 22.824 13.5029 22.824Z" fill="white"/>
</svg>
