<svg width="40" height="40" viewBox="0 0 40 40" fill="none" xmlns="http://www.w3.org/2000/svg">
<circle cx="20" cy="20" r="20" fill="#C4C4C4"/>
<circle cx="20" cy="20" r="20" fill="#33BA9C"/>
<path d="M31.9225 25.562C31.1484 24.6335 30.2374 23.8411 29.3755 22.9996C28.5978 22.2412 28.5488 21.8012 29.1739 20.9257C29.8561 19.9703 30.5898 19.0515 31.2782 18.1004C31.9209 17.2115 32.5778 16.325 32.9159 15.2607C33.1304 14.5836 32.9407 14.2846 32.2463 14.166C32.1267 14.1453 32.003 14.1442 31.8813 14.1442L27.7618 14.1393C27.2544 14.1318 26.9739 14.353 26.7945 14.8027C26.5522 15.4106 26.3025 16.0179 26.0139 16.6044C25.3592 17.9344 24.6279 19.2199 23.6027 20.3085C23.3766 20.5485 23.1266 20.8519 22.7488 20.7269C22.2762 20.5545 22.1369 19.7758 22.1447 19.5125L22.1407 14.7577C21.9995 13.7106 20.692 13.6437 19.6354 13.6439L16.9448 13.6444C16.3736 13.6444 16.0871 13.865 15.7821 14.2223C15.6062 14.4287 15.5531 14.5626 15.9147 14.6311C16.625 14.7658 17.0251 15.2254 17.1312 15.9376C17.3015 17.0754 17.2897 18.2179 17.1916 19.3603C17.1628 19.6939 17.1054 20.0266 16.9731 20.3381C16.7661 20.8277 16.432 20.9274 15.9931 20.6261C15.5957 20.3535 15.3165 19.9687 15.0433 19.5823C14.017 18.1322 13.1982 16.5683 12.5305 14.925C12.3376 14.4503 12.0048 14.1625 11.5018 14.1547C10.2659 14.135 9.02967 14.1318 7.79375 14.1558C7.05009 14.1698 6.82834 14.5308 7.13119 15.205C8.47732 18.1993 9.97568 21.1103 11.9316 23.7622C12.9358 25.1231 14.0887 26.3245 15.5782 27.176C17.2662 28.1411 19.0833 28.4316 20.9972 28.3421C21.8933 28.3001 22.1625 28.067 22.204 27.1738C22.232 26.5627 22.3013 25.9551 22.6028 25.406C22.8986 24.8671 23.3467 24.7645 23.8632 25.0997C24.1216 25.2675 24.3393 25.4812 24.5449 25.7064C25.0493 26.2583 25.5356 26.8268 26.0592 27.36C26.7158 28.0282 27.4937 28.4229 28.4717 28.3424L32.2579 28.3432C32.8679 28.3033 33.1843 27.5553 32.834 26.8745C32.588 26.3976 32.2652 25.9729 31.9225 25.562Z" fill="white"/>
</svg>
