<svg width="53" height="53" viewBox="0 0 53 53" fill="none" xmlns="http://www.w3.org/2000/svg">
<circle cx="26.5" cy="26.5" r="26" stroke="#85A7DB"/>
<path d="M31.5 28C30.3 28 28.43 28.34 27 29C25.57 28.33 23.7 28 22.5 28C20.33 28 16 29.08 16 31.25V34H38V31.25C38 29.08 33.67 28 31.5 28ZM27.5 32.5H17.5V31.25C17.5 30.71 20.06 29.5 22.5 29.5C24.94 29.5 27.5 30.71 27.5 31.25V32.5ZM36.5 32.5H29V31.25C29 30.79 28.8 30.39 28.48 30.03C29.36 29.73 30.44 29.5 31.5 29.5C33.94 29.5 36.5 30.71 36.5 31.25V32.5ZM22.5 27C24.43 27 26 25.43 26 23.5C26 21.57 24.43 20 22.5 20C20.57 20 19 21.57 19 23.5C19 25.43 20.57 27 22.5 27ZM22.5 21.5C23.6 21.5 24.5 22.4 24.5 23.5C24.5 24.6 23.6 25.5 22.5 25.5C21.4 25.5 20.5 24.6 20.5 23.5C20.5 22.4 21.4 21.5 22.5 21.5ZM31.5 27C33.43 27 35 25.43 35 23.5C35 21.57 33.43 20 31.5 20C29.57 20 28 21.57 28 23.5C28 25.43 29.57 27 31.5 27ZM31.5 21.5C32.6 21.5 33.5 22.4 33.5 23.5C33.5 24.6 32.6 25.5 31.5 25.5C30.4 25.5 29.5 24.6 29.5 23.5C29.5 22.4 30.4 21.5 31.5 21.5Z" fill="#85A7DB"/>
</svg>
