<svg width="53" height="53" viewBox="0 0 53 53" fill="none" xmlns="http://www.w3.org/2000/svg">
<circle cx="26.5" cy="26.5" r="26" stroke="#85A7DB"/>
<path d="M30.5 29H29.71L29.43 28.73C30.41 27.59 31 26.11 31 24.5C31 20.91 28.09 18 24.5 18C20.91 18 18 20.91 18 24.5C18 28.09 20.91 31 24.5 31C26.11 31 27.59 30.41 28.73 29.43L29 29.71V30.5L34 35.49L35.49 34L30.5 29ZM24.5 29C22.01 29 20 26.99 20 24.5C20 22.01 22.01 20 24.5 20C26.99 20 29 22.01 29 24.5C29 26.99 26.99 29 24.5 29Z" fill="#85A7DB"/>
</svg>
