<svg width="14" height="14" fill="none" xmlns="http://www.w3.org/2000/svg"><g clip-path="url(#clip0)" fill="#65ABDE"><path d="M8.54201 5.457c-.16584-.16682-.34972-.3147-.54822-.44092-.52578-.33668-1.13703-.51559-1.76136-.51559-.86656-.00161-1.69791.3427-2.30959.95651L.955376 8.42679C.344736 9.0386.00152402 9.86755.00097724 10.7319-.000171 12.5358 1.46114 13.999 3.26496 14.0001c.86522.003 1.6958-.3396 2.30726-.9518l2.44956-2.4496c.04451-.0441.06936-.1043.06901-.167-.00074-.1288-.10581-.2326-.23465-.2319h-.09331c-.51178.0018-1.019-.0965-1.49306-.28928-.08734-.03595-.18773-.01566-.25428.05132L4.25413 11.7255c-.54694.547-1.4337.547-1.98064 0-.54694-.5469-.54694-1.4337 0-1.98062l2.97914-2.97679c.5465-.54582 1.43182-.54582 1.97832 0 .36831.34663.94281.34663 1.31109 0 .15846-.1586.25452-.36894.27063-.59257.01703-.26724-.08153-.52895-.27066-.71852z"/><path d="M13.0422.956661c-1.2755-1.275548-3.34362-1.275548-4.61916 0L5.9758 3.40155c-.0672.06752-.08658.16909-.04899.25663.03715.08778.12398.14413.21928.1423h.08631c.51118-.00093 1.01758.09811 1.49073.29162.08735.03595.18774.01566.25428-.05132L9.7341 2.28642c.5469-.54694 1.4337-.54694 1.9806 0 .547.54694.547 1.43371 0 1.98065L9.52646 6.453l-.01867.021-.76519.76053c-.5465.54582-1.43182.54582-1.97832 0-.36831-.34662-.94281-.34662-1.31109 0-.15947.1598-.25562.37198-.27063.59722-.01706.26724.0815.52895.27063.71855.27003.27117.58595.49232.93316.65321.04899.02332.09798.04199.14697.06298.04899.021.10031.03732.1493.05599.04899.01868.1003.035.14929.049l.13766.03731c.0933.02332.18664.042.28227.05832.1152.01711.23123.02802.34761.03267h.17729l.13998-.01633c.05131-.00232.10498-.01399.16565-.01399h.07931l.16097-.02332.07466-.014.1353-.02799h.02567c.57305-.14394 1.09631-.44065 1.51402-.85853l2.9698-2.96979c1.2757-1.27555 1.2757-3.34362.0001-4.619169z"/></g><defs><clipPath id="clip0"><path fill="#fff" d="M0 0h14v14H0z"/></clipPath></defs></svg>