<svg width="25" height="30" viewBox="0 0 25 30" fill="none" xmlns="http://www.w3.org/2000/svg">
<path d="M24.25 12.5C24.25 14.0225 23.5514 15.8373 22.4028 17.7626C21.2645 19.6705 19.7357 21.6028 18.1897 23.3403C16.6463 25.0748 15.1006 26.5988 13.9395 27.6899C13.3594 28.235 12.8765 28.6711 12.5394 28.9702C12.526 28.982 12.5129 28.9936 12.5 29.0051C12.4871 28.9936 12.474 28.982 12.4606 28.9702C12.1235 28.6711 11.6406 28.235 11.0605 27.6899C9.89942 26.5988 8.3537 25.0748 6.81031 23.3403C5.26434 21.6028 3.73553 19.6705 2.59721 17.7626C1.44856 15.8373 0.75 14.0225 0.75 12.5C0.75 6.01065 6.01065 0.75 12.5 0.75C18.9893 0.75 24.25 6.01065 24.25 12.5Z" stroke="#85A7DB" stroke-width="1.5"/>
<circle cx="12.5" cy="12.5" r="3.75" stroke="#85A7DB" stroke-width="1.5"/>
</svg>
