<svg width="14" height="13" fill="none" xmlns="http://www.w3.org/2000/svg"><path d="M13.993 9.884c.03.2-.04.374-.207.521l-1.971 1.722c-.09.087-.205.161-.349.222-.143.06-.284.1-.422.117l-.089.007c-.05.004-.114.006-.193.006-.187 0-.491-.028-.911-.084-.42-.057-.934-.196-1.541-.418-.608-.222-1.297-.554-2.068-.998-.77-.443-1.59-1.052-2.46-1.826a15.038 15.038 0 01-1.72-1.722 12.174 12.174 0 01-1.096-1.52 7.703 7.703 0 01-.623-1.264 6.063 6.063 0 01-.281-.979c-.05-.274-.07-.489-.06-.645.011-.174.021-.351.09-.511.016-.04.036-.081.059-.122a.994.994 0 01.252-.307L2.373.35a.697.697 0 01.475-.183c.129 0 .242.033.341.098a.963.963 0 01.252.241l1.586 2.648c.089.14.113.291.074.457a.788.788 0 01-.252.417l-.726.64a.212.212 0 00-.052.084.306.306 0 00.003.195c.046.159.127.335.241.529.119.209.302.463.549.763.247.3.597.646 1.052 1.037.445.4.84.71 1.186.933.345.221.634.384.867.489.232.104.41.167.533.189l.088.015c.065.012.13.016.194-.002a.259.259 0 00.096-.046l.845-.756a.981.981 0 01.622-.21c.165 0 .296.026.394.076.004.002.01.003.014.003a.03.03 0 01.014.004l2.854 1.483c.207.113.33.257.37.43z" fill="#fff"/></svg>